<svg width="25" height="25" viewBox="0 0 25 25" fill="none" xmlns="http://www.w3.org/2000/svg">
<path d="M22.3358 3.35156C22.0936 3.14809 21.8006 3.01441 21.4881 2.96486C21.1757 2.91532 20.8557 2.95177 20.5624 3.07031L2.66397 10.2344C2.40306 10.3428 2.18011 10.526 2.02326 10.761C1.86642 10.996 1.78271 11.2722 1.78271 11.5547C1.78271 11.8372 1.86642 12.1134 2.02326 12.3484C2.18011 12.5834 2.40306 12.7666 2.66397 12.875L3.82022 13.3516C4.01086 13.4322 4.22571 13.4339 4.4176 13.3563C4.60949 13.2786 4.76272 13.128 4.84365 12.9375C4.88336 12.8426 4.90394 12.7408 4.90421 12.638C4.90449 12.5351 4.88445 12.4333 4.84526 12.3382C4.80606 12.2431 4.74847 12.1567 4.6758 12.0839C4.60313 12.0111 4.51681 11.9534 4.42178 11.9141L3.5624 11.5625L21.1483 4.53125C21.1754 4.51467 21.2065 4.5059 21.2382 4.5059C21.2699 4.5059 21.301 4.51467 21.328 4.53125C21.3535 4.5529 21.3728 4.58098 21.3838 4.61258C21.3948 4.64417 21.3971 4.67813 21.3905 4.71094L18.1796 19.6953C18.1691 19.7487 18.1448 19.7984 18.1092 19.8395C18.0735 19.8806 18.0278 19.9117 17.9765 19.9297C17.9261 19.9497 17.8713 19.9559 17.8178 19.9476C17.7642 19.9394 17.7138 19.917 17.6718 19.8828L11.4218 15.0078L17.539 8.82812C17.6696 8.69255 17.747 8.51434 17.7567 8.32629C17.7664 8.13824 17.7079 7.953 17.5919 7.80468C17.4759 7.65635 17.3102 7.55491 17.1254 7.51902C16.9405 7.48314 16.7489 7.51522 16.5858 7.60937L7.61709 12.9219C7.51748 12.9669 7.42842 13.0323 7.35568 13.1139C7.28293 13.1955 7.22813 13.2915 7.19479 13.3956C7.16146 13.4997 7.15035 13.6096 7.16217 13.7183C7.174 13.827 7.2085 13.932 7.26344 14.0265C7.31839 14.121 7.39255 14.2029 7.48114 14.2669C7.56973 14.331 7.67078 14.3757 7.77774 14.3983C7.88471 14.4208 7.99522 14.4206 8.10212 14.3978C8.20902 14.3749 8.30993 14.3299 8.39834 14.2656L12.1718 12.0391L10.3358 13.9062C10.1679 14.0641 10.0369 14.2571 9.95232 14.4714C9.86773 14.6858 9.83161 14.9162 9.84654 15.1462C9.86147 15.3762 9.9271 15.6 10.0387 15.8017C10.1503 16.0033 10.3051 16.1777 10.4921 16.3125L16.7421 21.1172C17.071 21.371 17.475 21.5085 17.8905 21.5078C18.1118 21.5062 18.3311 21.4666 18.539 21.3906C18.8374 21.2835 19.1033 21.1015 19.3113 20.8621C19.5192 20.6227 19.6622 20.3339 19.7265 20.0234L22.914 5.05468C22.9816 4.74507 22.9635 4.42286 22.8617 4.12275C22.7598 3.82264 22.578 3.55601 22.3358 3.35156Z" fill="white"/>
</svg>
