<svg width="22" height="22" viewBox="0 0 22 22" fill="none" xmlns="http://www.w3.org/2000/svg">
<path d="M10.9348 5.24689C7.84834 5.24689 5.29102 7.76011 5.29102 10.8906C5.29102 14.0211 7.80424 16.5344 10.9348 16.5344C14.0653 16.5344 16.5785 13.977 16.5785 10.8906C16.5785 7.80421 14.0212 5.24689 10.9348 5.24689ZM10.9348 14.5061C8.95063 14.5061 7.31923 12.8748 7.31923 10.8906C7.31923 8.9065 8.95063 7.27511 10.9348 7.27511C12.9189 7.27511 14.5503 8.9065 14.5503 10.8906C14.5503 12.8748 12.9189 14.5061 10.9348 14.5061Z" fill="white"/>
<path d="M16.7992 6.39332C17.5054 6.39332 18.0778 5.82084 18.0778 5.11466C18.0778 4.40847 17.5054 3.836 16.7992 3.836C16.093 3.836 15.5205 4.40847 15.5205 5.11466C15.5205 5.82084 16.093 6.39332 16.7992 6.39332Z" fill="white"/>
<path d="M20.1058 1.80776C18.9594 0.617284 17.328 0 15.4762 0H6.3933C2.55732 0 0 2.55732 0 6.3933V15.4321C0 17.328 0.617284 18.9594 1.85185 20.1499C3.04233 21.2963 4.62963 21.8695 6.43739 21.8695H15.4321C17.328 21.8695 18.9153 21.2522 20.0617 20.1499C21.2522 19.0035 21.8695 17.3721 21.8695 15.4762V6.3933C21.8695 4.54145 21.2522 2.95414 20.1058 1.80776ZM19.9295 15.4762C19.9295 16.843 19.4444 17.9453 18.6508 18.6949C17.8571 19.4444 16.7549 19.8413 15.4321 19.8413H6.43739C5.11464 19.8413 4.01235 19.4444 3.21869 18.6949C2.42504 17.9012 2.02822 16.7989 2.02822 15.4321V6.3933C2.02822 5.07055 2.42504 3.96825 3.21869 3.1746C3.96825 2.42504 5.11464 2.02822 6.43739 2.02822H15.5203C16.843 2.02822 17.9453 2.42504 18.739 3.21869C19.4885 4.01235 19.9295 5.11464 19.9295 6.3933V15.4762Z" fill="white"/>
</svg>
