<svg width="68" height="61" viewBox="0 0 68 61" fill="none" xmlns="http://www.w3.org/2000/svg">
<g clip-path="url(#clip0_4_629)" filter="url(#filter0_d_4_629)">
<rect x="4.98267" y="0.595947" width="58.1279" height="51.5085" rx="19" fill="#740A76"/>
<path d="M32.7461 34.7388C32.889 34.7388 33.0318 34.6852 33.139 34.5781L38.7015 29.2209C38.7818 29.1406 40.7461 27.3459 40.7461 25.2031C40.7461 22.587 39.1479 21.0245 36.4782 21.0245C34.9157 21.0245 33.4515 22.2567 32.7461 22.9531C32.0407 22.2567 30.5765 21.0245 29.014 21.0245C26.3443 21.0245 24.7461 22.587 24.7461 25.2031C24.7461 27.3459 26.7104 29.1406 26.7818 29.2031L32.3532 34.5781C32.4604 34.6852 32.6032 34.7388 32.7461 34.7388Z" fill="white"/>
</g>
<defs>
<filter id="filter0_d_4_629" x="0.982666" y="0.595947" width="66.1279" height="59.5085" filterUnits="userSpaceOnUse" color-interpolation-filters="sRGB">
<feFlood flood-opacity="0" result="BackgroundImageFix"/>
<feColorMatrix in="SourceAlpha" type="matrix" values="0 0 0 0 0 0 0 0 0 0 0 0 0 0 0 0 0 0 127 0" result="hardAlpha"/>
<feOffset dy="4"/>
<feGaussianBlur stdDeviation="2"/>
<feColorMatrix type="matrix" values="0 0 0 0 0 0 0 0 0 0 0 0 0 0 0 0 0 0 0.25 0"/>
<feBlend mode="normal" in2="BackgroundImageFix" result="effect1_dropShadow_4_629"/>
<feBlend mode="normal" in="SourceGraphic" in2="effect1_dropShadow_4_629" result="shape"/>
</filter>
<clipPath id="clip0_4_629">
<rect width="58.1279" height="51.5085" fill="white" transform="translate(4.98267 0.595947)"/>
</clipPath>
</defs>
</svg>
