<svg width="25" height="25" viewBox="0 0 25 25" fill="none" xmlns="http://www.w3.org/2000/svg">
<path fill-rule="evenodd" clip-rule="evenodd" d="M20.4522 4.72428C18.4011 2.67089 15.6736 1.53958 12.7676 1.53839C6.77983 1.53839 1.90643 6.41139 1.90409 12.401C1.90326 14.3157 2.40349 16.1845 3.35418 17.8319L1.81299 23.4612L7.57186 21.9506C9.15856 22.8161 10.9451 23.2722 12.7632 23.2729H12.7676C12.7673 23.2729 12.768 23.2729 12.7676 23.2729C18.7548 23.2729 23.6286 18.3994 23.6311 12.4097C23.6321 9.50692 22.5032 6.77757 20.4522 4.72428ZM12.7676 21.4382H12.7639C11.1438 21.4376 9.55468 21.0023 8.16836 20.1796L7.83869 19.984L4.42129 20.8804L5.33348 17.5485L5.11878 17.2068C4.21496 15.7692 3.73761 14.1077 3.73831 12.4016C3.74025 7.42329 7.79084 3.37314 12.7713 3.37314C15.1829 3.37389 17.45 4.31435 19.1548 6.02104C20.8595 7.72774 21.7978 9.99631 21.7968 12.4089C21.7948 17.3876 17.7443 21.4382 12.7676 21.4382Z" fill="white"/>
<path fill-rule="evenodd" clip-rule="evenodd" d="M17.7207 14.6758C17.4493 14.5399 16.1147 13.8834 15.866 13.7927C15.6172 13.7021 15.4362 13.6568 15.2553 13.9286C15.0743 14.2003 14.5541 14.8117 14.3958 14.9929C14.2374 15.174 14.079 15.1968 13.8077 15.0608C13.5363 14.9249 12.6616 14.6383 11.6249 13.7136C10.8179 12.9938 10.2732 12.1049 10.1148 11.8331C9.95645 11.5614 10.0979 11.4146 10.2338 11.2792C10.3559 11.1575 10.5053 10.9622 10.641 10.8036C10.7767 10.6452 10.8219 10.5319 10.9124 10.3508C11.0029 10.1696 10.9577 10.0111 10.8898 9.8753C10.8219 9.73943 10.2791 8.40338 10.0529 7.85979C9.83254 7.33058 9.60879 7.40229 9.44214 7.39386C9.28406 7.38597 9.10286 7.38434 8.92193 7.38434C8.741 7.38434 8.44687 7.45229 8.19812 7.72397C7.94932 7.99574 7.24805 8.65248 7.24805 9.98841C7.24805 11.3245 8.2207 12.6152 8.35643 12.7963C8.49212 12.9776 10.2705 15.7192 12.9934 16.8949C13.641 17.1747 14.1466 17.3417 14.5408 17.4667C15.191 17.6734 15.7828 17.6442 16.2505 17.5743C16.772 17.4963 17.8565 16.9177 18.0826 16.2837C18.3088 15.6496 18.3088 15.106 18.2409 14.9929C18.1731 14.8797 17.9921 14.8117 17.7207 14.6758Z" fill="white"/>
</svg>
